<?xml version="1.0" encoding="utf-8"?>
<!-- Generator: Adobe Illustrator 19.2.1, SVG Export Plug-In . SVG Version: 6.00 Build 0)  -->
<svg version="1.1" id="Layer_1" xmlns="http://www.w3.org/2000/svg" xmlns:xlink="http://www.w3.org/1999/xlink" x="0px" y="0px"
   viewBox="0 0 671 150" style="enable-background:new 0 0 671 150;" xml:space="preserve">
<path d="M50,43c17.6,0,32,14.4,32,32s-14.4,32-32,32S18,92.6,18,75S32.4,43,50,43 M50,25C22.4,25,0,47.4,0,75c0,27.6,22.4,50,50,50
  c27.6,0,50-22.4,50-50C100,47.4,77.6,25,50,25L50,25z"/>
<g>
  <polygon points="209,75 209,75 209,75   "/>
  <path d="M185.9,92.2c-5.7,8.9-15.6,14.8-26.9,14.8c-17.6,0-32-14.4-32-32s14.4-32,32-32c11.3,0,21.2,5.9,26.9,14.8l15.2-9.7
    C192.2,34.2,176.7,25,159,25c-27.6,0-50,22.4-50,50c0,27.6,22.4,50,50,50c17.7,0,33.2-9.2,42.1-23L185.9,92.2z"/>
</g>
<path d="M228.1,43h32V25h-32h0V0h-18v25h0v50h0c0,27.6,22.4,50,50,50v-18c-17.6,0-32-14.4-32-32h0V43z"/>
<path d="M319.1,43c17.6,0,32,14.4,32,32s-14.4,32-32,32s-32-14.4-32-32S301.4,43,319.1,43 M319.1,25c-27.6,0-50,22.4-50,50
  c0,27.6,22.4,50,50,50c27.6,0,50-22.4,50-50C369.1,47.4,346.7,25,319.1,25L319.1,25z"/>
<path d="M428,25c-27.6,0-50,22.4-50,50c0,0,0,0,0,0v75h18v-36.6c8.7,7.2,19.8,11.6,32,11.6c27.6,0,50-22.4,50-50S455.6,25,428,25z
   M428,107c-17.6,0-32-14.4-32-32s14.4-32,32-32s32,14.4,32,32S445.7,107,428,107z"/>
<path d="M569,25v50c0,17.6-14.4,32-32,32s-32-14.4-32-32V25h-18v50c0,27.6,22.4,50,50,50s50-22.4,50-50V25H569z"/>
<path d="M646,25c-27.6,0-50,22.4-50,50h18c0-17.6,14.4-32,32-32h25V25H646z"/>
<path d="M653,75c0,17.6-14.4,32-32,32v0h-25v18h25c27.6,0,50-22.4,50-50H653z"/>
</svg>
